# xmcd
#
# Track frame offsets:
#	182
#	17495
#	37220
#	53687
#
# Disc length: 1044 seconds
#
# Revision: 2
# Processed by: cddbd v1.4PL0 Copyright (c) Steve Scherf et al.
# Submitted via: EasyCDDAExtractor 4.6.0.1
#
DISCID=2a041204
DTITLE=Sheryl Crow - What I Can Do For You
DYEAR=1995
DGENRE=Rock
TTITLE0=What I Can Do For You (UK Edit)
TTITLE1=D'yer Mak'er
TTITLE2=I'm Gonna Be A Wheel Someday
TTITLE3=No-One Said It Would Be Easy
EXTD=
EXTT0=
EXTT1=
EXTT2=
EXTT3=
PLAYORDER=
